<svg xmlns="http://www.w3.org/2000/svg" xmlns:xlink="http://www.w3.org/1999/xlink" width="50" height="35" viewBox="0 0 50 35">
  <defs>
    <clipPath id="clip-Artboard_1">
      <rect width="50" height="35"/>
    </clipPath>
  </defs>
  <g id="Artboard_1" data-name="Artboard – 1" clip-path="url(#clip-Artboard_1)">
    <rect width="50" height="35" fill="rgba(130,36,36,0)"/>
    <g id="Subtraction_2" data-name="Subtraction 2" transform="translate(2 4)" fill="#fff">
      <path d="M 35.00009918212891 27.49990081787109 L 11.99970054626465 27.49990081787109 C 8.9287109375 27.49990081787109 6.040810585021973 26.30373954772949 3.867980718612671 24.13178062438965 C 1.696160793304443 21.95909118652344 0.5000008344650269 19.07087135314941 0.5000008344650269 15.99930000305176 L 0.5000008344650269 11.99970054626465 C 0.5000008344650269 8.928709983825684 1.696160793304443 6.040810585021973 3.868120908737183 3.867980480194092 C 6.040810585021973 1.696160435676575 8.9287109375 0.5000004172325134 11.99970054626465 0.5000004172325134 L 35.00009918212891 0.5000004172325134 C 38.07194900512695 0.5000004172325134 40.95981979370117 1.696130394935608 43.13175201416016 3.868050336837769 C 45.30364227294922 6.040810585021973 46.49980163574219 8.928709983825684 46.49980163574219 11.99970054626465 L 46.49980163574219 15.99930000305176 C 46.49980163574219 19.07087135314941 45.30364227294922 21.95909118652344 43.13167953491211 24.13191986083984 C 40.95981979370117 26.30377006530762 38.07194900512695 27.49990081787109 35.00009918212891 27.49990081787109 Z M 34.02809906005859 7.339900493621826 C 30.3316707611084 7.339900493621826 27.32439994812012 10.32738018035889 27.32439994812012 13.9995002746582 C 27.32439994812012 17.67210960388184 30.3316707611084 20.65999984741211 34.02809906005859 20.65999984741211 C 37.72452926635742 20.65999984741211 40.7318000793457 17.67210960388184 40.7318000793457 13.9995002746582 C 40.7318000793457 10.32738018035889 37.72452926635742 7.339900493621826 34.02809906005859 7.339900493621826 Z M 12.97170066833496 7.339900493621826 C 9.275270462036133 7.339900493621826 6.268000602722168 10.32738018035889 6.268000602722168 13.9995002746582 C 6.268000602722168 17.67210960388184 9.275270462036133 20.65999984741211 12.97170066833496 20.65999984741211 C 16.66863059997559 20.65999984741211 19.67630004882812 17.67210960388184 19.67630004882812 13.9995002746582 C 19.67630004882812 10.32738018035889 16.66863059997559 7.339900493621826 12.97170066833496 7.339900493621826 Z" stroke="none"/>
      <path d="M 35.00009918212891 26.99990081787109 C 37.93839263916016 26.99990081787109 40.70071029663086 25.85577964782715 42.77804946899414 23.7784309387207 C 44.85562896728516 21.70003128051758 45.99980163574219 18.93735122680664 45.99980163574219 15.99930000305176 L 45.99980163574219 11.99970054626465 C 45.99980163574219 9.062230110168457 44.85562896728516 6.299870491027832 42.77819061279297 4.221610546112061 C 40.70071029663086 2.144120454788208 37.93839263916016 1.000000357627869 35.00009918212891 1.000000357627869 L 11.99970054626465 1.000000357627869 C 9.062231063842773 1.000000357627869 6.29987096786499 2.144170522689819 4.221750736236572 4.221470355987549 C 2.144170761108398 6.299870491027832 1.000000834465027 9.062230110168457 1.000000834465027 11.99970054626465 L 1.000000834465027 15.99930000305176 C 1.000000834465027 18.93735122680664 2.144170761108398 21.70003128051758 4.221470832824707 23.77815055847168 C 6.29987096786499 25.8557300567627 9.062231063842773 26.99990081787109 11.99970054626465 26.99990081787109 L 35.00009918212891 26.99990081787109 M 34.02809906005859 6.839900493621826 C 38.0002326965332 6.839900493621826 41.2318000793457 10.05168056488037 41.2318000793457 13.9995002746582 C 41.2318000793457 17.94781112670898 38.0002326965332 21.15999984741211 34.02809906005859 21.15999984741211 C 30.05597114562988 21.15999984741211 26.82439994812012 17.94781112670898 26.82439994812012 13.9995002746582 C 26.82439994812012 10.05168056488037 30.05597114562988 6.839900493621826 34.02809906005859 6.839900493621826 M 12.97170066833496 6.839900493621826 C 16.9443302154541 6.839900493621826 20.17630004882812 10.05168056488037 20.17630004882812 13.9995002746582 C 20.17630004882812 17.94781112670898 16.9443302154541 21.15999984741211 12.97170066833496 21.15999984741211 C 8.999570846557617 21.15999984741211 5.768000602722168 17.94781112670898 5.768000602722168 13.9995002746582 C 5.768000602722168 10.05168056488037 8.999570846557617 6.839900493621826 12.97170066833496 6.839900493621826 M 35.00009918212891 27.99990081787109 L 11.99970054626465 27.99990081787109 C 8.795200347900391 27.99990081787109 5.781760692596436 26.75176048278809 3.514500856399536 24.48540115356445 C 1.248140811920166 22.2181396484375 8.178710686479462e-07 19.20438003540039 8.178710686479462e-07 15.99930000305176 L 8.178710686479462e-07 11.99970054626465 C 8.178710686479462e-07 8.795200347900391 1.248140811920166 5.781760215759277 3.514500856399536 3.514500379562378 C 5.781760692596436 1.248140454292297 8.795200347900391 4.089355343239731e-07 11.99970054626465 4.089355343239731e-07 L 35.00009918212891 4.089355343239731e-07 C 38.20550155639648 4.089355343239731e-07 41.21894073486328 1.248140454292297 43.48530197143555 3.514500379562378 C 45.75165939331055 5.781760215759277 46.99980163574219 8.795200347900391 46.99980163574219 11.99970054626465 L 46.99980163574219 15.99930000305176 C 46.99980163574219 19.20438003540039 45.75165939331055 22.2181396484375 43.48530197143555 24.48540115356445 C 41.21894073486328 26.75176048278809 38.20550155639648 27.99990081787109 35.00009918212891 27.99990081787109 Z M 34.02809906005859 7.839900493621826 C 30.60737037658691 7.839900493621826 27.82439994812012 10.60309028625488 27.82439994812012 13.9995002746582 C 27.82439994812012 17.39640998840332 30.60737037658691 20.15999984741211 34.02809906005859 20.15999984741211 C 37.44882965087891 20.15999984741211 40.2318000793457 17.39640998840332 40.2318000793457 13.9995002746582 C 40.2318000793457 10.60309028625488 37.44882965087891 7.839900493621826 34.02809906005859 7.839900493621826 Z M 12.97170066833496 7.839900493621826 C 9.550971031188965 7.839900493621826 6.768000602722168 10.60309028625488 6.768000602722168 13.9995002746582 C 6.768000602722168 17.39640998840332 9.550971031188965 20.15999984741211 12.97170066833496 20.15999984741211 C 16.39293098449707 20.15999984741211 19.17630004882812 17.39640998840332 19.17630004882812 13.9995002746582 C 19.17630004882812 10.60309028625488 16.39293098449707 7.839900493621826 12.97170066833496 7.839900493621826 Z" stroke="none" fill="#707070"/>
    </g>
    <path id="Path_1" data-name="Path 1" d="M735,28.891s9.4-9.835,21.968,0" transform="translate(-720.398 -18.03)" fill="none" stroke="#707070" stroke-width="1"/>
    <path id="Path_2" data-name="Path 2" d="M772.211,104l-3.049,3.067L765.677,104l-3.267,3.067-4.081-2.932h0" transform="translate(-739.685 -80.031)" fill="none" stroke="#707070" stroke-width="3"/>
  </g>
</svg>
